<svg xmlns="http://www.w3.org/2000/svg" xml:space="preserve" width="130" height="130" id="rss">
  <path fill="#323738" d="m105.133 10.223-12.82-7.344a9.504 9.504 0 0 0-1.801-1.032l-.189-.108-.008.016C86.866.353 82.411.86 77.551 3.665L38.064 26.46c-10.857 6.269-19.74 21.655-19.74 34.193v45.591c0 6.114 2.123 10.45 5.547 12.578l-.033.059 14.248 8.072 8.012-13.949 31.453-18.157c10.855-6.269 19.74-21.655 19.74-34.193V23.876l7.842-13.653z"></path>
  <path fill="#252B2D" d="M105.133 10.223 91.41 7.005c-.561-.409-3.363-.398-4.002-.677l-1.017-.408-1.832-.34C81.11 4.178 82.411.859 77.551 3.664L38.064 26.46c-10.857 6.269-19.74 21.655-19.74 34.193v45.591c0 6.114 2.123 10.45 5.547 12.578l-.033.059 14.248 8.072 8.012-13.949 31.453-18.157c10.855-6.269 19.74-21.655 19.74-34.193V23.876l7.842-13.653z"></path>
  <path fill="#090C0C" d="M19.076 54.085c-.479 2.231-.752 4.442-.752 6.568v45.591c0 6.114 2.123 10.45 5.547 12.578l-.033.059 14.248 8.072 8.012-13.949 31.453-18.157c1.844-1.065 3.627-2.411 5.322-3.945L19.076 54.085z"></path>
  <path fill="#3B4142" d="M51.635 34.329c-10.857 6.269-19.742 21.655-19.742 34.193v45.591c0 12.538 8.885 17.666 19.742 11.398l39.484-22.796c10.857-6.269 19.742-21.655 19.742-34.193v-45.59c0-12.538-8.885-17.666-19.742-11.398L51.635 34.329z"></path>
  <path fill="#383E3F" d="M110.861 22.932c0-12.538-8.885-17.666-19.742-11.398L51.635 34.329c-10.857 6.269-19.742 21.655-19.742 34.193v45.591c0 12.538 8.885 17.666 19.742 11.398" opacity=".2"></path>
  <path fill="#4F5759" d="M42.865 129h-.002c-7.158 0-11.783-5.844-11.783-14.887V68.522c0-12.829 9.037-28.485 20.146-34.897l39.486-22.796c3.201-1.848 6.289-2.784 9.178-2.784 7.158 0 11.785 5.844 11.785 14.887v45.591c0 12.829-9.039 28.485-20.148 34.897l-39.486 22.796C48.84 128.063 45.754 129 42.865 129zM99.891 9.674c-2.6 0-5.414.863-8.363 2.564L52.041 35.033c-10.66 6.156-19.334 21.179-19.334 33.489v45.591c0 8.178 3.891 13.259 10.156 13.259h.002c2.6 0 5.412-.864 8.361-2.565l39.486-22.795c10.66-6.155 19.334-21.179 19.334-33.489V22.932c.001-8.178-3.89-13.258-10.155-13.258z"></path>
  <path fill="#FA9826" d="M42.719 75.797c-.715.412-1.279 1.399-1.277 2.212l.033 11.946c.002.81.572 1.135 1.285.723 13.619-7.862 24.734-1.52 24.777 14.129.004.812.58 1.14 1.287.732l10.387-5.998c.715-.411 1.279-1.399 1.277-2.212-.066-23.854-17.009-33.518-37.769-21.532"></path>
  <path fill="#E8790A" d="M42.719 75.797c-.715.412-1.279 1.399-1.277 2.212l.033 11.946c.002.81.572 1.135 1.285.723 11.787-6.805 21.691-2.963 24.174 8.336L77.08 81.44c-5.965-11.566-19.131-14.437-34.361-5.643z"></path>
  <path fill="#FA9826" d="M42.658 54.902c-.705.408-1.279 1.401-1.277 2.212l.035 11.938c.002.811.58 1.138 1.285.73 23.646-13.651 42.951-2.65 43.027 24.521.002.812.572 1.145 1.277.737l10.396-6.003c.707-.406 1.271-1.395 1.27-2.207-.099-35.378-25.224-49.704-56.013-31.928"></path>
  <path fill="#E8790A" d="M42.658 54.902c-.705.408-1.279 1.401-1.277 2.212l.035 11.938c.002.811.58 1.138 1.285.73 16.652-9.613 31.141-6.988 38.287 4.888l9.484-16.427c-9.857-12.847-27.617-15.002-47.814-3.341zM50.58 95.187c-5.01 2.893-9.062 9.914-9.047 15.662.018 5.749 4.098 8.08 9.107 5.188 5.002-2.888 9.055-9.916 9.039-15.666-.015-5.747-4.095-8.071-9.099-5.184"></path>
</svg>
